<svg width="32" height="10" viewBox="0 0 32 10" fill="none" xmlns="http://www.w3.org/2000/svg">
<path d="M0.48 9C0.416 9 0.36 8.976 0.312 8.928C0.264 8.88 0.24 8.824 0.24 8.76C0.24 8.696 0.244 8.652 0.252 8.628L3.228 0.864C3.292 0.687999 3.42 0.599999 3.612 0.599999H4.428C4.62 0.599999 4.748 0.687999 4.812 0.864L7.776 8.628L7.8 8.76C7.8 8.824 7.776 8.88 7.728 8.928C7.68 8.976 7.624 9 7.56 9H6.948C6.86 9 6.792 8.98 6.744 8.94C6.696 8.892 6.664 8.844 6.648 8.796L5.988 7.092H2.052L1.392 8.796C1.376 8.844 1.34 8.892 1.284 8.94C1.236 8.98 1.172 9 1.092 9H0.48ZM5.64 6.06L4.02 1.8L2.4 6.06H5.64ZM11.3768 9.12C10.5208 9.12 9.84875 8.88 9.36075 8.4C8.88075 7.912 8.62475 7.232 8.59275 6.36L8.58075 5.88L8.59275 5.4C8.62475 4.528 8.88075 3.852 9.36075 3.372C9.84875 2.884 10.5208 2.64 11.3768 2.64C11.9528 2.64 12.4408 2.744 12.8408 2.952C13.2408 3.16 13.5368 3.416 13.7288 3.72C13.9288 4.024 14.0368 4.328 14.0528 4.632C14.0608 4.712 14.0368 4.776 13.9808 4.824C13.9248 4.872 13.8568 4.896 13.7768 4.896H13.2008C13.1208 4.896 13.0608 4.88 13.0208 4.848C12.9808 4.816 12.9408 4.752 12.9008 4.656C12.7648 4.272 12.5728 4 12.3248 3.84C12.0768 3.672 11.7648 3.588 11.3888 3.588C10.8928 3.588 10.4968 3.744 10.2008 4.056C9.91275 4.36 9.75675 4.828 9.73275 5.46L9.72075 5.892L9.73275 6.3C9.75675 6.94 9.91275 7.412 10.2008 7.716C10.4888 8.02 10.8848 8.172 11.3888 8.172C11.7648 8.172 12.0768 8.092 12.3248 7.932C12.5728 7.764 12.7648 7.488 12.9008 7.104C12.9408 7.008 12.9808 6.944 13.0208 6.912C13.0608 6.872 13.1208 6.852 13.2008 6.852H13.7768C13.8568 6.852 13.9248 6.88 13.9808 6.936C14.0368 6.984 14.0608 7.048 14.0528 7.128C14.0368 7.424 13.9288 7.728 13.7288 8.04C13.5368 8.344 13.2408 8.6 12.8408 8.808C12.4488 9.016 11.9608 9.12 11.3768 9.12ZM15.7538 9C15.6738 9 15.6058 8.976 15.5498 8.928C15.5018 8.872 15.4778 8.804 15.4778 8.724V3.036C15.4778 2.956 15.5018 2.892 15.5498 2.844C15.6058 2.788 15.6738 2.76 15.7538 2.76H16.2938C16.3738 2.76 16.4378 2.788 16.4858 2.844C16.5418 2.892 16.5698 2.956 16.5698 3.036V3.456C16.9858 2.912 17.5658 2.64 18.3098 2.64C19.1978 2.64 19.8258 3.008 20.1938 3.744C20.3858 3.408 20.6578 3.14 21.0098 2.94C21.3618 2.74 21.7578 2.64 22.1978 2.64C22.8538 2.64 23.3898 2.864 23.8058 3.312C24.2218 3.76 24.4298 4.408 24.4298 5.256V8.724C24.4298 8.804 24.4018 8.872 24.3458 8.928C24.2978 8.976 24.2338 9 24.1538 9H23.5898C23.5098 9 23.4418 8.976 23.3858 8.928C23.3378 8.872 23.3138 8.804 23.3138 8.724V5.364C23.3138 4.74 23.1818 4.292 22.9178 4.02C22.6618 3.748 22.3218 3.612 21.8978 3.612C21.5218 3.612 21.1978 3.752 20.9258 4.032C20.6538 4.304 20.5178 4.748 20.5178 5.364V8.724C20.5178 8.804 20.4898 8.872 20.4338 8.928C20.3858 8.976 20.3218 9 20.2418 9H19.6778C19.5978 9 19.5298 8.976 19.4738 8.928C19.4258 8.872 19.4018 8.804 19.4018 8.724V5.364C19.4018 4.74 19.2658 4.292 18.9938 4.02C18.7298 3.748 18.3938 3.612 17.9858 3.612C17.6098 3.612 17.2858 3.752 17.0138 4.032C16.7418 4.304 16.6058 4.744 16.6058 5.352V8.724C16.6058 8.804 16.5778 8.872 16.5218 8.928C16.4738 8.976 16.4098 9 16.3298 9H15.7538ZM28.6379 9.12C27.8139 9.12 27.1539 8.868 26.6579 8.364C26.1699 7.852 25.9019 7.156 25.8539 6.276L25.8419 5.868L25.8539 5.472C25.9099 4.608 26.1819 3.92 26.6699 3.408C27.1659 2.896 27.8179 2.64 28.6259 2.64C29.5139 2.64 30.2019 2.924 30.6899 3.492C31.1779 4.052 31.4219 4.812 31.4219 5.772V5.976C31.4219 6.056 31.3939 6.124 31.3379 6.18C31.2899 6.228 31.2259 6.252 31.1459 6.252H26.9939V6.36C27.0179 6.88 27.1739 7.324 27.4619 7.692C27.7579 8.052 28.1459 8.232 28.6259 8.232C28.9939 8.232 29.2939 8.16 29.5259 8.016C29.7659 7.864 29.9419 7.708 30.0539 7.548C30.1259 7.452 30.1779 7.396 30.2099 7.38C30.2499 7.356 30.3179 7.344 30.4139 7.344H31.0019C31.0739 7.344 31.1339 7.364 31.1819 7.404C31.2299 7.444 31.2539 7.5 31.2539 7.572C31.2539 7.748 31.1419 7.96 30.9179 8.208C30.7019 8.456 30.3939 8.672 29.9939 8.856C29.6019 9.032 29.1499 9.12 28.6379 9.12ZM30.2819 5.424V5.388C30.2819 4.836 30.1299 4.388 29.8259 4.044C29.5299 3.692 29.1299 3.516 28.6259 3.516C28.1219 3.516 27.7219 3.692 27.4259 4.044C27.1379 4.388 26.9939 4.836 26.9939 5.388V5.424H30.2819Z" fill="#9CA3AF"/>
</svg>
