<svg width="32" height="10" viewBox="0 0 32 10" fill="none" xmlns="http://www.w3.org/2000/svg">
<path d="M3.396 0.995999C3.692 0.995999 4.032 1.024 4.416 1.08C4.8 1.128 5.152 1.184 5.472 1.248L5.448 2.148C4.544 1.972 3.86 1.884 3.396 1.884C2.844 1.884 2.448 1.996 2.208 2.22C1.976 2.436 1.86 2.8 1.86 3.312V6.792C1.86 7.304 1.976 7.676 2.208 7.908C2.448 8.132 2.844 8.244 3.396 8.244C3.756 8.244 4.224 8.188 4.8 8.076V5.424H3.3V4.464H5.82V8.7C4.86 8.996 4.052 9.144 3.396 9.144C2.476 9.144 1.82 8.948 1.428 8.556C1.036 8.164 0.84 7.552 0.84 6.72V3.42C0.84 2.572 1.04 1.956 1.44 1.572C1.84 1.188 2.492 0.995999 3.396 0.995999ZM8.51625 0.804V9H7.49625V0.804H8.51625ZM12.1836 3C12.8956 3 13.4236 3.192 13.7676 3.576C14.1196 3.952 14.2956 4.488 14.2956 5.184V6.96C14.2956 7.656 14.1196 8.196 13.7676 8.58C13.4236 8.956 12.8956 9.144 12.1836 9.144C11.4716 9.144 10.9396 8.956 10.5876 8.58C10.2436 8.196 10.0716 7.656 10.0716 6.96V5.184C10.0716 4.488 10.2436 3.952 10.5876 3.576C10.9396 3.192 11.4716 3 12.1836 3ZM12.1836 3.852C11.8396 3.852 11.5716 3.96 11.3796 4.176C11.1876 4.392 11.0916 4.7 11.0916 5.1V7.044C11.0916 7.444 11.1876 7.752 11.3796 7.968C11.5716 8.184 11.8396 8.292 12.1836 8.292C12.5276 8.292 12.7956 8.184 12.9876 7.968C13.1796 7.752 13.2756 7.444 13.2756 7.044V5.088C13.2756 4.688 13.1796 4.384 12.9876 4.176C12.7956 3.96 12.5276 3.852 12.1836 3.852ZM16.8117 3.924C17.0197 3.628 17.2597 3.4 17.5317 3.24C17.8037 3.08 18.0877 3 18.3837 3C18.8797 3 19.2637 3.176 19.5357 3.528C19.8077 3.872 19.9437 4.376 19.9437 5.04V6.936C19.9437 7.664 19.7717 8.216 19.4277 8.592C19.0837 8.96 18.5517 9.144 17.8317 9.144C17.1277 9.144 16.6117 8.964 16.2837 8.604C15.9557 8.244 15.7917 7.696 15.7917 6.96V0.804H16.8117V3.924ZM18.1437 3.912C17.9117 3.912 17.6757 4 17.4357 4.176C17.1957 4.352 16.9877 4.592 16.8117 4.896V7.08C16.8117 7.472 16.8997 7.772 17.0757 7.98C17.2597 8.188 17.5117 8.292 17.8317 8.292C18.5597 8.292 18.9237 7.88 18.9237 7.056V5.184C18.9237 4.336 18.6637 3.912 18.1437 3.912ZM23.4202 3C24.0922 3 24.6042 3.184 24.9562 3.552C25.3082 3.92 25.4842 4.452 25.4842 5.148V6.384H22.4002V7.092C22.4002 7.5 22.4962 7.796 22.6882 7.98C22.8882 8.156 23.2002 8.244 23.6242 8.244C24.0402 8.244 24.5602 8.18 25.1842 8.052L25.2082 8.94C24.4642 9.076 23.9322 9.144 23.6122 9.144C22.8202 9.144 22.2482 8.972 21.8962 8.628C21.5522 8.284 21.3802 7.752 21.3802 7.032V5.148C21.3802 4.452 21.5482 3.92 21.8842 3.552C22.2282 3.184 22.7402 3 23.4202 3ZM23.4202 3.852C23.1082 3.852 22.8602 3.952 22.6762 4.152C22.4922 4.344 22.4002 4.624 22.4002 4.992V5.568H24.4642V5.028C24.4642 4.644 24.3682 4.352 24.1762 4.152C23.9922 3.952 23.7402 3.852 23.4202 3.852ZM30.8873 3.144L29.1713 5.952L31.0193 9H29.8553L28.5353 6.708L27.2513 9H26.0873L27.9113 5.988L26.2073 3.144H27.3713L28.5593 5.244L29.7593 3.144H30.8873Z" fill="#9CA3AF"/>
</svg>
