<svg width="51" height="14" viewBox="0 0 51 14" fill="none" xmlns="http://www.w3.org/2000/svg">
<path d="M2.016 1.636V10H0.924V1.636H2.016ZM7.08113 3.304C7.88113 3.304 8.52913 3.548 9.02513 4.036C9.52113 4.516 9.76913 5.212 9.76913 6.124V10H8.68913V6.28C8.68913 5.624 8.52513 5.124 8.19713 4.78C7.86913 4.428 7.42113 4.252 6.85313 4.252C6.27713 4.252 5.81713 4.432 5.47313 4.792C5.13713 5.152 4.96913 5.676 4.96913 6.364V10H3.87713V3.424H4.96913V4.36C5.18513 4.024 5.47713 3.764 5.84513 3.58C6.22113 3.396 6.63313 3.304 7.08113 3.304ZM11.1449 6.688C11.1449 6.016 11.2809 5.428 11.5529 4.924C11.8249 4.412 12.1969 4.016 12.6689 3.736C13.1489 3.456 13.6849 3.316 14.2769 3.316C14.7889 3.316 15.2649 3.436 15.7049 3.676C16.1449 3.908 16.4809 4.216 16.7129 4.6V1.12H17.8169V10H16.7129V8.764C16.4969 9.156 16.1769 9.48 15.7529 9.736C15.3289 9.984 14.8329 10.108 14.2649 10.108C13.6809 10.108 13.1489 9.964 12.6689 9.676C12.1969 9.388 11.8249 8.984 11.5529 8.464C11.2809 7.944 11.1449 7.352 11.1449 6.688ZM16.7129 6.7C16.7129 6.204 16.6129 5.772 16.4129 5.404C16.2129 5.036 15.9409 4.756 15.5969 4.564C15.2609 4.364 14.8889 4.264 14.4809 4.264C14.0729 4.264 13.7009 4.36 13.3649 4.552C13.0289 4.744 12.7609 5.024 12.5609 5.392C12.3609 5.76 12.2609 6.192 12.2609 6.688C12.2609 7.192 12.3609 7.632 12.5609 8.008C12.7609 8.376 13.0289 8.66 13.3649 8.86C13.7009 9.052 14.0729 9.148 14.4809 9.148C14.8889 9.148 15.2609 9.052 15.5969 8.86C15.9409 8.66 16.2129 8.376 16.4129 8.008C16.6129 7.632 16.7129 7.196 16.7129 6.7ZM20.2263 2.356C20.0183 2.356 19.8423 2.284 19.6983 2.14C19.5543 1.996 19.4823 1.82 19.4823 1.612C19.4823 1.404 19.5543 1.228 19.6983 1.084C19.8423 0.94 20.0183 0.868 20.2263 0.868C20.4263 0.868 20.5943 0.94 20.7303 1.084C20.8743 1.228 20.9463 1.404 20.9463 1.612C20.9463 1.82 20.8743 1.996 20.7303 2.14C20.5943 2.284 20.4263 2.356 20.2263 2.356ZM20.7543 3.424V10H19.6623V3.424H20.7543ZM28.6154 6.46C28.6154 6.668 28.6034 6.888 28.5794 7.12H23.3234C23.3634 7.768 23.5834 8.276 23.9834 8.644C24.3914 9.004 24.8834 9.184 25.4594 9.184C25.9314 9.184 26.3234 9.076 26.6354 8.86C26.9554 8.636 27.1794 8.34 27.3074 7.972H28.4834C28.3074 8.604 27.9554 9.12 27.4274 9.52C26.8994 9.912 26.2434 10.108 25.4594 10.108C24.8354 10.108 24.2754 9.968 23.7794 9.688C23.2914 9.408 22.9074 9.012 22.6274 8.5C22.3474 7.98 22.2074 7.38 22.2074 6.7C22.2074 6.02 22.3434 5.424 22.6154 4.912C22.8874 4.4 23.2674 4.008 23.7554 3.736C24.2514 3.456 24.8194 3.316 25.4594 3.316C26.0834 3.316 26.6354 3.452 27.1154 3.724C27.5954 3.996 27.9634 4.372 28.2194 4.852C28.4834 5.324 28.6154 5.86 28.6154 6.46ZM27.4874 6.232C27.4874 5.816 27.3954 5.46 27.2114 5.164C27.0274 4.86 26.7754 4.632 26.4554 4.48C26.1434 4.32 25.7954 4.24 25.4114 4.24C24.8594 4.24 24.3874 4.416 23.9954 4.768C23.6114 5.12 23.3914 5.608 23.3354 6.232H27.4874ZM32.3848 10.108C31.8808 10.108 31.4288 10.024 31.0288 9.856C30.6288 9.68 30.3128 9.44 30.0808 9.136C29.8488 8.824 29.7208 8.468 29.6968 8.068H30.8248C30.8568 8.396 31.0088 8.664 31.2808 8.872C31.5608 9.08 31.9248 9.184 32.3728 9.184C32.7888 9.184 33.1168 9.092 33.3568 8.908C33.5968 8.724 33.7168 8.492 33.7168 8.212C33.7168 7.924 33.5888 7.712 33.3328 7.576C33.0768 7.432 32.6808 7.292 32.1448 7.156C31.6568 7.028 31.2568 6.9 30.9448 6.772C30.6408 6.636 30.3768 6.44 30.1528 6.184C29.9368 5.92 29.8288 5.576 29.8288 5.152C29.8288 4.816 29.9288 4.508 30.1288 4.228C30.3288 3.948 30.6128 3.728 30.9808 3.568C31.3488 3.4 31.7688 3.316 32.2408 3.316C32.9688 3.316 33.5568 3.5 34.0048 3.868C34.4528 4.236 34.6928 4.74 34.7248 5.38H33.6328C33.6088 5.036 33.4688 4.76 33.2128 4.552C32.9648 4.344 32.6288 4.24 32.2048 4.24C31.8128 4.24 31.5008 4.324 31.2688 4.492C31.0368 4.66 30.9208 4.88 30.9208 5.152C30.9208 5.368 30.9888 5.548 31.1248 5.692C31.2688 5.828 31.4448 5.94 31.6528 6.028C31.8688 6.108 32.1648 6.2 32.5408 6.304C33.0128 6.432 33.3968 6.56 33.6928 6.688C33.9888 6.808 34.2408 6.992 34.4488 7.24C34.6648 7.488 34.7768 7.812 34.7848 8.212C34.7848 8.572 34.6848 8.896 34.4848 9.184C34.2848 9.472 34.0008 9.7 33.6328 9.868C33.2728 10.028 32.8568 10.108 32.3848 10.108ZM37.6583 4.324V8.2C37.6583 8.52 37.7263 8.748 37.8623 8.884C37.9983 9.012 38.2343 9.076 38.5703 9.076H39.3743V10H38.3903C37.7823 10 37.3263 9.86 37.0223 9.58C36.7183 9.3 36.5663 8.84 36.5663 8.2V4.324H35.7143V3.424H36.5663V1.768H37.6583V3.424H39.3743V4.324H37.6583ZM41.7894 4.492C41.9814 4.116 42.2534 3.824 42.6054 3.616C42.9654 3.408 43.4014 3.304 43.9134 3.304V4.432H43.6254C42.4014 4.432 41.7894 5.096 41.7894 6.424V10H40.6974V3.424H41.7894V4.492ZM50.838 3.424L46.878 13.096H45.75L47.046 9.928L44.394 3.424H45.606L47.67 8.752L49.71 3.424H50.838Z" fill="#9CA3AF"/>
</svg>
