<svg width="86" height="12" viewBox="0 0 86 12" fill="none" xmlns="http://www.w3.org/2000/svg">
<path d="M5.48438 6.84375C5.48438 7.07812 5.43359 7.28125 5.33203 7.45312C5.23047 7.62109 5.09961 7.75977 4.93945 7.86914C4.7793 7.98242 4.5957 8.06641 4.38867 8.12109C4.18555 8.17188 3.97852 8.19727 3.76758 8.19727C3.50195 8.19727 3.25586 8.16211 3.0293 8.0918C2.80664 8.01758 2.60938 7.9082 2.4375 7.76367C2.26562 7.62305 2.125 7.45117 2.01562 7.24805C1.90625 7.04102 1.83398 6.80469 1.79883 6.53906H0.691406C0.703125 6.90625 0.783203 7.24023 0.931641 7.54102C1.08398 7.83789 1.28906 8.09766 1.54688 8.32031C1.83594 8.57812 2.17578 8.77539 2.56641 8.91211C2.96094 9.04883 3.36133 9.11719 3.76758 9.11719C4.10742 9.11719 4.44727 9.07031 4.78711 8.97656C5.12695 8.87891 5.43164 8.73438 5.70117 8.54297C5.9707 8.35547 6.18945 8.11914 6.35742 7.83398C6.5293 7.54883 6.61523 7.21484 6.61523 6.83203C6.61523 6.45312 6.53516 6.11914 6.375 5.83008C6.21875 5.54102 6.01172 5.29688 5.75391 5.09766C5.49219 4.88281 5.20312 4.70703 4.88672 4.57031C4.57031 4.42969 4.25391 4.31055 3.9375 4.21289C3.74609 4.1543 3.54102 4.08594 3.32227 4.00781C3.10742 3.92969 2.9082 3.83203 2.72461 3.71484C2.53711 3.59766 2.38281 3.45508 2.26172 3.28711C2.14062 3.11523 2.07812 2.90625 2.07422 2.66016C2.07422 2.43359 2.11914 2.23438 2.20898 2.0625C2.30273 1.89062 2.42773 1.74609 2.58398 1.62891C2.73633 1.51172 2.91016 1.42383 3.10547 1.36523C3.30469 1.30664 3.50781 1.27734 3.71484 1.27734C3.97266 1.27734 4.20312 1.31836 4.40625 1.40039C4.61328 1.47852 4.79102 1.58984 4.93945 1.73438C5.08789 1.87891 5.20703 2.05273 5.29688 2.25586C5.38672 2.45508 5.44727 2.67773 5.47852 2.92383H6.5918C6.58398 2.5332 6.5 2.17969 6.33984 1.86328C6.17969 1.54688 5.9668 1.27734 5.70117 1.05469C5.43555 0.832031 5.13086 0.660156 4.78711 0.539062C4.44336 0.414062 4.08594 0.351562 3.71484 0.351562C3.37891 0.351562 3.04492 0.404297 2.71289 0.509766C2.38086 0.611328 2.08398 0.761719 1.82227 0.960938C1.56055 1.16016 1.34766 1.4043 1.18359 1.69336C1.02344 1.98242 0.943359 2.31055 0.943359 2.67773C0.943359 3.04492 1.02344 3.36523 1.18359 3.63867C1.34766 3.9082 1.55859 4.14258 1.81641 4.3418C2.07031 4.53711 2.35156 4.70508 2.66016 4.8457C2.97266 4.98242 3.2793 5.09961 3.58008 5.19727C3.78711 5.26367 4.00195 5.33789 4.22461 5.41992C4.45117 5.50195 4.6582 5.60352 4.8457 5.72461C5.0332 5.84961 5.18555 6.00195 5.30273 6.18164C5.42383 6.36133 5.48438 6.58203 5.48438 6.84375ZM8.39648 2.66016V3.60352H10.5527V8.0625H8.39648V9H13.7051V8.0625H11.6367V2.66016H8.39648ZM10.4121 0.996094C10.4121 1.17188 10.4648 1.31836 10.5703 1.43555C10.6797 1.55273 10.8438 1.61133 11.0625 1.61133C11.2773 1.61133 11.4395 1.55273 11.5488 1.43555C11.6582 1.31836 11.7129 1.17188 11.7129 0.996094C11.7129 0.898438 11.6973 0.808594 11.666 0.726562C11.6348 0.644531 11.5879 0.576172 11.5254 0.521484C11.4746 0.470703 11.4102 0.431641 11.332 0.404297C11.2539 0.373047 11.1641 0.357422 11.0625 0.357422C10.9609 0.357422 10.8691 0.373047 10.7871 0.404297C10.709 0.431641 10.6445 0.470703 10.5938 0.521484C10.5312 0.580078 10.4844 0.650391 10.4531 0.732422C10.4258 0.814453 10.4121 0.902344 10.4121 0.996094ZM15.4336 9H16.5176V4.45312C16.5918 4.31641 16.6777 4.19141 16.7754 4.07812C16.877 3.96484 16.9863 3.86523 17.1035 3.7793C17.248 3.68164 17.4062 3.60547 17.5781 3.55078C17.75 3.49219 17.9355 3.46289 18.1348 3.46289C18.3652 3.46289 18.5684 3.49023 18.7441 3.54492C18.9238 3.59961 19.0762 3.6875 19.2012 3.80859C19.3223 3.92969 19.4141 4.08789 19.4766 4.2832C19.5391 4.47852 19.5703 4.7168 19.5703 4.99805V9H20.6543V4.97461C20.6543 4.55273 20.6016 4.18945 20.4961 3.88477C20.3945 3.57617 20.248 3.32227 20.0566 3.12305C19.8652 2.92383 19.6328 2.77734 19.3594 2.68359C19.0898 2.58984 18.7891 2.54297 18.457 2.54297C18.2109 2.54688 17.9766 2.58398 17.7539 2.6543C17.5352 2.7207 17.332 2.81641 17.1445 2.94141C17.0195 3.02344 16.9004 3.12109 16.7871 3.23438C16.6777 3.34375 16.5762 3.46484 16.4824 3.59766L16.4062 2.66016H15.4336V9ZM22.4414 5.77734V5.90039C22.4414 6.35352 22.5 6.77734 22.6172 7.17188C22.7344 7.5625 22.9023 7.90234 23.1211 8.19141C23.3359 8.48047 23.5996 8.70703 23.9121 8.87109C24.2246 9.03516 24.5742 9.11719 24.9609 9.11719C25.1914 9.11719 25.4062 9.0918 25.6055 9.04102C25.8047 8.99414 25.9863 8.92578 26.1504 8.83594C26.2559 8.77734 26.3535 8.70898 26.4434 8.63086C26.5371 8.55273 26.625 8.4668 26.707 8.37305V8.91797C26.707 9.19141 26.668 9.43359 26.5898 9.64453C26.5117 9.85547 26.4004 10.0312 26.2559 10.1719C26.1074 10.3164 25.9297 10.4258 25.7227 10.5C25.5156 10.5742 25.2832 10.6113 25.0254 10.6113C24.8809 10.6113 24.7363 10.5957 24.5918 10.5645C24.4473 10.5371 24.3027 10.4902 24.1582 10.4238C24.0137 10.3574 23.8711 10.2676 23.7305 10.1543C23.5898 10.0449 23.4531 9.91016 23.3203 9.75L22.7578 10.4004C22.9023 10.6074 23.0742 10.7812 23.2734 10.9219C23.4766 11.0625 23.6875 11.1738 23.9062 11.2559C24.1211 11.3418 24.334 11.4023 24.5449 11.4375C24.7559 11.4766 24.9434 11.4961 25.1074 11.4961C25.5059 11.4961 25.8691 11.4375 26.1973 11.3203C26.5254 11.2031 26.8086 11.0312 27.0469 10.8047C27.2812 10.5781 27.4629 10.3027 27.5918 9.97852C27.7246 9.6543 27.791 9.2832 27.791 8.86523V2.66016H26.8066L26.7539 3.35156C26.6797 3.25781 26.5996 3.17188 26.5137 3.09375C26.4316 3.01562 26.3438 2.94727 26.25 2.88867C26.0781 2.77539 25.8848 2.68945 25.6699 2.63086C25.459 2.57227 25.2266 2.54297 24.9727 2.54297C24.5781 2.54297 24.2246 2.62305 23.9121 2.7832C23.5996 2.94336 23.334 3.16602 23.1152 3.45117C22.8965 3.73633 22.7285 4.07812 22.6113 4.47656C22.498 4.87109 22.4414 5.30469 22.4414 5.77734ZM23.5254 5.90039V5.77734C23.5254 5.46875 23.5566 5.17578 23.6191 4.89844C23.6855 4.61719 23.7891 4.36914 23.9297 4.1543C24.0664 3.94336 24.2422 3.77539 24.457 3.65039C24.6758 3.52539 24.9375 3.46289 25.2422 3.46289C25.4219 3.46289 25.5859 3.48633 25.7344 3.5332C25.8828 3.57617 26.0176 3.63672 26.1387 3.71484C26.2598 3.79688 26.3672 3.89258 26.4609 4.00195C26.5547 4.11133 26.6367 4.23242 26.707 4.36523V7.27148C26.6367 7.4082 26.5547 7.5332 26.4609 7.64648C26.3672 7.75977 26.2617 7.85742 26.1445 7.93945C26.0234 8.02148 25.8867 8.08594 25.7344 8.13281C25.5859 8.17578 25.418 8.19727 25.2305 8.19727C24.9297 8.19727 24.6719 8.13672 24.457 8.01562C24.2422 7.89062 24.0664 7.72266 23.9297 7.51172C23.7891 7.30078 23.6855 7.05664 23.6191 6.7793C23.5566 6.50195 23.5254 6.20898 23.5254 5.90039ZM30.0176 0V0.943359H32.1738V8.0625H30.0176V9H35.3262V8.0625H33.2578V0H30.0176ZM39.8555 9.11719C40.4727 9.11719 40.9902 8.99414 41.4082 8.74805C41.8301 8.49805 42.1465 8.21289 42.3574 7.89258L41.6953 7.37695C41.4961 7.63477 41.2461 7.8418 40.9453 7.99805C40.6445 8.1543 40.3008 8.23242 39.9141 8.23242C39.6211 8.23242 39.3535 8.17773 39.1113 8.06836C38.8691 7.95898 38.6621 7.80859 38.4902 7.61719C38.3223 7.4375 38.1895 7.23047 38.0918 6.99609C37.998 6.76172 37.9375 6.49023 37.9102 6.18164V6.14062H42.4395V5.6543C42.4395 5.21289 42.3828 4.80273 42.2695 4.42383C42.1602 4.04492 41.9922 3.71484 41.7656 3.43359C41.5391 3.15625 41.2539 2.93945 40.9102 2.7832C40.5703 2.62305 40.1719 2.54297 39.7148 2.54297C39.3516 2.54297 38.9961 2.61719 38.6484 2.76562C38.3047 2.91406 37.998 3.12695 37.7285 3.4043C37.4551 3.68555 37.2363 4.0293 37.0723 4.43555C36.9082 4.83789 36.8262 5.29492 36.8262 5.80664V6.05273C36.8262 6.49414 36.9004 6.90234 37.0488 7.27734C37.1973 7.65234 37.4043 7.97656 37.6699 8.25C37.9355 8.52344 38.2539 8.73633 38.625 8.88867C39 9.04102 39.4102 9.11719 39.8555 9.11719ZM39.7148 3.43359C39.9922 3.43359 40.2305 3.48438 40.4297 3.58594C40.6328 3.6875 40.8008 3.82031 40.9336 3.98438C41.0664 4.14844 41.1699 4.34375 41.2441 4.57031C41.3184 4.79297 41.3555 5.00195 41.3555 5.19727V5.25H37.9453C37.9883 4.95703 38.0625 4.69922 38.168 4.47656C38.2773 4.25 38.4102 4.05859 38.5664 3.90234C38.7227 3.75 38.8984 3.63477 39.0938 3.55664C39.2891 3.47461 39.4961 3.43359 39.7148 3.43359ZM46.8281 1.125H45.7383V2.66016H44.0742V3.49805H45.7383V6.94336C45.7383 7.33398 45.7891 7.66797 45.8906 7.94531C45.9961 8.21875 46.1387 8.44141 46.3184 8.61328C46.498 8.78906 46.709 8.91797 46.9512 9C47.1973 9.07812 47.4609 9.11719 47.7422 9.11719C47.9102 9.11719 48.0781 9.10938 48.2461 9.09375C48.418 9.07812 48.5801 9.05469 48.7324 9.02344C48.8848 8.99609 49.0254 8.96289 49.1543 8.92383C49.2832 8.88086 49.3926 8.83203 49.4824 8.77734L49.3301 8.00977C49.2637 8.02539 49.1777 8.04492 49.0723 8.06836C48.9707 8.08789 48.8613 8.10742 48.7441 8.12695C48.623 8.14648 48.5 8.16406 48.375 8.17969C48.25 8.19141 48.1289 8.19727 48.0117 8.19727C47.8516 8.19727 47.6992 8.17773 47.5547 8.13867C47.4141 8.09961 47.2891 8.03125 47.1797 7.93359C47.0703 7.83984 46.9844 7.71289 46.9219 7.55273C46.8594 7.39258 46.8281 7.18945 46.8281 6.94336V3.49805H49.2422V2.66016H46.8281V1.125ZM54.2695 9.11719C54.8867 9.11719 55.4043 8.99414 55.8223 8.74805C56.2441 8.49805 56.5605 8.21289 56.7715 7.89258L56.1094 7.37695C55.9102 7.63477 55.6602 7.8418 55.3594 7.99805C55.0586 8.1543 54.7148 8.23242 54.3281 8.23242C54.0352 8.23242 53.7676 8.17773 53.5254 8.06836C53.2832 7.95898 53.0762 7.80859 52.9043 7.61719C52.7363 7.4375 52.6035 7.23047 52.5059 6.99609C52.4121 6.76172 52.3516 6.49023 52.3242 6.18164V6.14062H56.8535V5.6543C56.8535 5.21289 56.7969 4.80273 56.6836 4.42383C56.5742 4.04492 56.4062 3.71484 56.1797 3.43359C55.9531 3.15625 55.668 2.93945 55.3242 2.7832C54.9844 2.62305 54.5859 2.54297 54.1289 2.54297C53.7656 2.54297 53.4102 2.61719 53.0625 2.76562C52.7188 2.91406 52.4121 3.12695 52.1426 3.4043C51.8691 3.68555 51.6504 4.0293 51.4863 4.43555C51.3223 4.83789 51.2402 5.29492 51.2402 5.80664V6.05273C51.2402 6.49414 51.3145 6.90234 51.4629 7.27734C51.6113 7.65234 51.8184 7.97656 52.084 8.25C52.3496 8.52344 52.668 8.73633 53.0391 8.88867C53.4141 9.04102 53.8242 9.11719 54.2695 9.11719ZM54.1289 3.43359C54.4062 3.43359 54.6445 3.48438 54.8438 3.58594C55.0469 3.6875 55.2148 3.82031 55.3477 3.98438C55.4805 4.14844 55.584 4.34375 55.6582 4.57031C55.7324 4.79297 55.7695 5.00195 55.7695 5.19727V5.25H52.3594C52.4023 4.95703 52.4766 4.69922 52.582 4.47656C52.6914 4.25 52.8242 4.05859 52.9805 3.90234C53.1367 3.75 53.3125 3.63477 53.5078 3.55664C53.7031 3.47461 53.9102 3.43359 54.1289 3.43359ZM61.377 8.23828C61.0371 8.23828 60.752 8.17188 60.5215 8.03906C60.2949 7.90234 60.1133 7.72461 59.9766 7.50586C59.8359 7.29102 59.7344 7.04883 59.6719 6.7793C59.6133 6.50586 59.584 6.23047 59.584 5.95312V5.70703C59.584 5.43359 59.6133 5.16211 59.6719 4.89258C59.7344 4.62305 59.8359 4.37891 59.9766 4.16016C60.1172 3.94531 60.3008 3.77148 60.5273 3.63867C60.7578 3.50195 61.041 3.43359 61.377 3.43359C61.5957 3.43359 61.7988 3.4707 61.9863 3.54492C62.1777 3.61914 62.3418 3.7207 62.4785 3.84961C62.6152 3.97852 62.7227 4.12891 62.8008 4.30078C62.8828 4.46875 62.9258 4.64844 62.9297 4.83984H63.9551C63.9551 4.51953 63.8906 4.21875 63.7617 3.9375C63.6328 3.65625 63.4551 3.41211 63.2285 3.20508C62.998 3.00195 62.7246 2.8418 62.4082 2.72461C62.0957 2.60352 61.752 2.54297 61.377 2.54297C60.8965 2.54297 60.4766 2.62891 60.1172 2.80078C59.7578 2.97266 59.459 3.20312 59.2207 3.49219C58.9785 3.78516 58.7969 4.12305 58.6758 4.50586C58.5547 4.88867 58.4941 5.28906 58.4941 5.70703V5.95312C58.4941 6.375 58.5547 6.77734 58.6758 7.16016C58.7969 7.53906 58.9785 7.87305 59.2207 8.16211C59.459 8.45508 59.7578 8.6875 60.1172 8.85938C60.4766 9.03125 60.8965 9.11719 61.377 9.11719C61.7129 9.11719 62.0352 9.06055 62.3438 8.94727C62.6523 8.83008 62.9258 8.67383 63.1641 8.47852C63.4023 8.28711 63.5918 8.06445 63.7324 7.81055C63.877 7.55273 63.9512 7.2832 63.9551 7.00195H62.9297C62.9258 7.17773 62.8789 7.3418 62.7891 7.49414C62.7031 7.64258 62.5879 7.77148 62.4434 7.88086C62.2988 7.99414 62.1328 8.08203 61.9453 8.14453C61.7617 8.20703 61.5723 8.23828 61.377 8.23828ZM66.9668 3.60352V0H65.8828V9H66.9668V4.39453C67.0449 4.26953 67.1328 4.15625 67.2305 4.05469C67.332 3.94922 67.4414 3.85742 67.5586 3.7793C67.707 3.67773 67.8691 3.59961 68.0449 3.54492C68.2207 3.49023 68.4062 3.46289 68.6016 3.46289C68.8398 3.45898 69.0508 3.49219 69.2344 3.5625C69.418 3.62891 69.5703 3.73047 69.6914 3.86719C69.8047 3.99219 69.8906 4.15039 69.9492 4.3418C70.0078 4.5293 70.0371 4.74805 70.0371 4.99805V9H71.1211V5.00977C71.1211 4.58398 71.0684 4.2168 70.9629 3.9082C70.8613 3.5957 70.7148 3.33789 70.5234 3.13477C70.332 2.93164 70.0996 2.7832 69.8262 2.68945C69.5566 2.5918 69.2559 2.54297 68.9238 2.54297C68.6699 2.54688 68.4297 2.58398 68.2031 2.6543C67.9805 2.72461 67.7754 2.82812 67.5879 2.96484C67.4707 3.04688 67.3594 3.14258 67.2539 3.25195C67.1484 3.35742 67.0527 3.47461 66.9668 3.60352ZM73.0898 9H74.1738V4.45312C74.248 4.31641 74.334 4.19141 74.4316 4.07812C74.5332 3.96484 74.6426 3.86523 74.7598 3.7793C74.9043 3.68164 75.0625 3.60547 75.2344 3.55078C75.4062 3.49219 75.5918 3.46289 75.791 3.46289C76.0215 3.46289 76.2246 3.49023 76.4004 3.54492C76.5801 3.59961 76.7324 3.6875 76.8574 3.80859C76.9785 3.92969 77.0703 4.08789 77.1328 4.2832C77.1953 4.47852 77.2266 4.7168 77.2266 4.99805V9H78.3105V4.97461C78.3105 4.55273 78.2578 4.18945 78.1523 3.88477C78.0508 3.57617 77.9043 3.32227 77.7129 3.12305C77.5215 2.92383 77.2891 2.77734 77.0156 2.68359C76.7461 2.58984 76.4453 2.54297 76.1133 2.54297C75.8672 2.54688 75.6328 2.58398 75.4102 2.6543C75.1914 2.7207 74.9883 2.81641 74.8008 2.94141C74.6758 3.02344 74.5566 3.12109 74.4434 3.23438C74.334 3.34375 74.2324 3.46484 74.1387 3.59766L74.0625 2.66016H73.0898V9ZM79.9922 5.77148V5.90039C79.9922 6.35742 80.0586 6.78125 80.1914 7.17188C80.3242 7.5625 80.5156 7.90234 80.7656 8.19141C81.0117 8.48047 81.3125 8.70703 81.668 8.87109C82.0273 9.03516 82.4316 9.11719 82.8809 9.11719C83.3262 9.11719 83.7266 9.03516 84.082 8.87109C84.4375 8.70703 84.7402 8.48047 84.9902 8.19141C85.2363 7.90234 85.4258 7.5625 85.5586 7.17188C85.6914 6.78125 85.7578 6.35742 85.7578 5.90039V5.77148C85.7578 5.31445 85.6914 4.89062 85.5586 4.5C85.4258 4.10547 85.2363 3.76367 84.9902 3.47461C84.7402 3.18555 84.4355 2.95898 84.0762 2.79492C83.7207 2.62695 83.3184 2.54297 82.8691 2.54297C82.4238 2.54297 82.0234 2.62695 81.668 2.79492C81.3125 2.95898 81.0117 3.18555 80.7656 3.47461C80.5156 3.76367 80.3242 4.10547 80.1914 4.5C80.0586 4.89062 79.9922 5.31445 79.9922 5.77148ZM81.0762 5.90039V5.77148C81.0762 5.46289 81.1133 5.16797 81.1875 4.88672C81.2617 4.60156 81.375 4.35156 81.5273 4.13672C81.6758 3.92188 81.8613 3.75195 82.084 3.62695C82.3066 3.49805 82.5684 3.43359 82.8691 3.43359C83.1699 3.43359 83.4316 3.49805 83.6543 3.62695C83.8809 3.75195 84.0703 3.92188 84.2227 4.13672C84.3711 4.35156 84.4824 4.60156 84.5566 4.88672C84.6348 5.16797 84.6738 5.46289 84.6738 5.77148V5.90039C84.6738 6.21289 84.6367 6.51172 84.5625 6.79688C84.4883 7.07812 84.377 7.32617 84.2285 7.54102C84.0762 7.75586 83.8867 7.92578 83.6602 8.05078C83.4375 8.17578 83.1777 8.23828 82.8809 8.23828C82.5801 8.23828 82.3164 8.17578 82.0898 8.05078C81.8633 7.92578 81.6758 7.75586 81.5273 7.54102C81.375 7.32617 81.2617 7.07812 81.1875 6.79688C81.1133 6.51172 81.0762 6.21289 81.0762 5.90039Z" fill="#9CA3AF"/>
</svg>
